<?xml version="1.0" encoding="UTF-8" standalone="no"?>
<!-- Created with Inkscape (http://www.inkscape.org/) -->

<svg
   width="192"
   height="192"
   viewBox="0 0 50.799999 50.8"
   version="1.1"
   id="svg1"
   inkscape:version="1.3 (0e150ed6c4, 2023-07-21)"
   sodipodi:docname="launcher_inkscape.svg"
   xmlns:inkscape="http://www.inkscape.org/namespaces/inkscape"
   xmlns:sodipodi="http://sodipodi.sourceforge.net/DTD/sodipodi-0.dtd"
   xmlns="http://www.w3.org/2000/svg"
   xmlns:svg="http://www.w3.org/2000/svg">
  <sodipodi:namedview
     id="namedview1"
     pagecolor="#ffffff"
     bordercolor="#000000"
     borderopacity="0.25"
     inkscape:showpageshadow="2"
     inkscape:pageopacity="0.0"
     inkscape:pagecheckerboard="0"
     inkscape:deskcolor="#d1d1d1"
     inkscape:document-units="mm"
     inkscape:zoom="0.65834035"
     inkscape:cx="-78.9865"
     inkscape:cy="-78.227014"
     inkscape:window-width="1920"
     inkscape:window-height="974"
     inkscape:window-x="-11"
     inkscape:window-y="-11"
     inkscape:window-maximized="1"
     inkscape:current-layer="layer1"
     inkscape:lockguides="false" />
  <defs
     id="defs1" />
  <g
     inkscape:label="Layer 1"
     inkscape:groupmode="layer"
     id="layer1">
    <text
       xml:space="preserve"
       style="font-weight:900;font-stretch:expanded;font-size:10.0542px;line-height:1;font-family:'Mona Sans Expanded';-inkscape-font-specification:'Mona Sans Expanded,  Heavy Expanded';text-align:end;letter-spacing:0px;word-spacing:0px;text-anchor:end;display:inline;fill:#333333;stroke-width:49.9997;stroke-linecap:round;stroke-linejoin:round"
       x="51.011215"
       y="23.987385"
       id="text1"><tspan
         sodipodi:role="line"
         id="tspan1"
         style="font-size:10.0542px;text-align:end;text-anchor:end;stroke-width:49.9998"
         x="51.011215"
         y="23.987385">Part</tspan><tspan
         sodipodi:role="line"
         style="font-size:10.0542px;text-align:end;text-anchor:end;stroke-width:49.9998"
         x="51.011215"
         y="34.041584"
         id="tspan3">Relate</tspan></text>
    <text
       xml:space="preserve"
       style="font-weight:900;font-stretch:expanded;font-size:6.61458px;line-height:1;font-family:'Mona Sans Expanded';-inkscape-font-specification:'Mona Sans Expanded,  Heavy Expanded';text-align:end;letter-spacing:0px;word-spacing:0px;text-anchor:end;display:none;fill:#333333;stroke-width:49.9999;stroke-linecap:round;stroke-linejoin:round"
       x="45.895439"
       y="27.42359"
       id="text4"><tspan
         sodipodi:role="line"
         id="tspan4"
         style="font-size:6.61458px;stroke-width:50"
         x="45.895439"
         y="27.42359">PartRelate</tspan></text>
    <g
       id="g10"
       transform="translate(0.52916667)">
      <path
         style="fill:#333333;stroke-width:49.9999;stroke-linecap:round;stroke-linejoin:round"
         d="m 25.221178,18.862599 c -0.402589,-0.125256 -0.841004,-0.127971 -1.243297,-0.248659 -0.06108,-0.01832 -0.115367,-0.05721 -0.177614,-0.07105 -0.04624,-0.01027 -0.09537,0.0078 -0.142091,0 -0.324008,-0.054 -0.210035,-0.08045 -0.497319,-0.106568 -0.05896,-0.0054 -0.118772,0.0065 -0.177614,0 -0.359479,-0.03994 0.102185,-0.03859 -0.319705,-0.07105 -0.158682,-0.0122 -0.842678,-0.03799 -0.994638,0 -0.05137,0.01284 -0.09251,0.05245 -0.142092,0.07105 -0.225013,0.08438 -0.491116,0.08013 -0.710455,0.177614 -0.126187,0.05608 -0.231719,0.151382 -0.355228,0.213137 -0.53422,0.26711 -1.069045,0.486939 -1.52748,0.888069 -0.198232,0.173454 -0.367451,0.365414 -0.568365,0.532842 -0.03947,0.03289 -0.148011,0.157879 -0.177613,0.177614 -0.119834,0.07989 -0.228595,0.0865 -0.355228,0.213137 -0.148582,0.148582 -0.248922,0.309057 -0.390751,0.461796 -0.09116,0.09817 -0.19842,0.181267 -0.284182,0.284182 -0.0339,0.04068 -0.03854,0.100292 -0.07105,0.142091 -0.02664,0.03426 -0.277078,0.270989 -0.319705,0.319706 -0.2515,0.287429 -0.280149,0.603112 -0.319705,0.959115 -0.01499,0.13494 -0.07264,0.326065 -0.106568,0.461796 -0.01184,0.04736 -0.02595,0.09422 -0.03552,0.142091 -0.0081,0.04033 0.03037,0.18277 0,0.213137 -0.104576,0.104575 -0.373808,-0.336402 -0.390751,-0.355228 -0.407963,-0.453292 -0.873311,-0.858146 -1.27882,-1.314343 -0.05037,-0.05667 -0.08848,-0.124002 -0.142091,-0.177614 -0.112645,-0.112645 -0.234276,-0.216032 -0.355228,-0.319705 -0.04345,-0.03725 -0.132311,-0.04839 -0.177614,-0.07105 -0.05295,-0.02648 -0.0647,-0.100227 -0.106568,-0.142091 -0.02236,-0.02235 -0.213137,-0.08555 -0.213137,-0.07105 0,0.02718 0.106314,0.07083 0.106568,0.07105 0.266616,0.22218 0.422683,0.552135 0.63941,0.817024 0.06217,0.07598 0.193402,0.174983 0.24866,0.24866 0.03177,0.04236 0.04027,0.099 0.07104,0.142091 0.115096,0.161133 0.268959,0.305207 0.390751,0.461796 0.05242,0.0674 0.08586,0.148877 0.142091,0.213137 0.02811,0.03213 0.0799,0.03771 0.106568,0.07105 0.04678,0.05848 0.03252,0.148921 0.07105,0.213137 0.01723,0.02872 0.05247,0.04318 0.07105,0.07105 0.07817,0.117255 0.08868,0.284026 0.177614,0.39075 0.04288,0.05146 0.103158,0.08759 0.142091,0.142091 0.06277,0.08788 0.07362,0.256382 0.106568,0.355228 0.06316,0.189474 0.05913,0.509125 0.24866,0.603888 0.02996,0.01498 0.03855,0.06292 0.07105,0.07105 0.0919,0.02297 0.1931,0.02603 0.284183,0 0.0322,-0.0092 0.04318,-0.05247 0.07105,-0.07105 0.06172,-0.04114 0.186943,-0.06542 0.24866,-0.106569 0.118636,-0.07909 0.218883,-0.18336 0.319705,-0.284182 0.05361,-0.05361 0.08224,-0.131066 0.142091,-0.177614 0.05033,-0.03915 0.124558,-0.03567 0.177614,-0.07105 0.05573,-0.03715 0.09168,-0.09798 0.142091,-0.142091 0.511896,-0.447909 -0.149211,0.153945 0.248659,-0.177614 0.06432,-0.0536 0.102726,-0.140169 0.177614,-0.177614 0.04367,-0.02183 0.09638,-0.01838 0.142092,-0.03552 0.450073,-0.168778 0.905747,-0.295273 1.385388,-0.355228 0.342521,-0.04282 -0.06325,-0.01971 0.284182,-0.106569 0.04595,-0.01149 0.09509,0.0059 0.142091,0 0.118885,-0.01486 0.317497,-0.02753 0.426274,-0.07105 0.01555,-0.0062 0.01964,-0.03023 0.03552,-0.03552 0.04493,-0.01498 0.09973,0.02118 0.142091,0 0.01059,-0.0053 0.01059,-0.03023 0,-0.03552 -0.02118,-0.01059 -0.04986,0.01059 -0.07105,0 -0.02996,-0.01498 -0.04109,-0.05607 -0.07105,-0.07105 -0.05731,-0.02866 -0.322096,-0.0634 -0.355228,-0.07105 -0.175506,-0.0405 -0.318226,-0.106568 -0.497319,-0.106568 -0.464967,0 -0.932422,0.0515 -1.385389,0.142091 -0.02596,0.0052 -0.04508,0.03033 -0.07105,0.03552 -0.05805,0.01161 -0.120177,-0.01436 -0.177614,0 -0.07656,0.01914 -0.100195,0.09108 -0.177614,0.106568 -0.03483,0.007 -0.07359,-0.01319 -0.106568,0 -0.0311,0.01244 -0.04233,0.05382 -0.07105,0.07105 -0.05922,0.03553 -0.449522,0.154366 -0.497319,0.106568 -0.05953,-0.05953 0.0143,-0.37689 0.03552,-0.461796 0.115163,-0.460652 -0.04785,0.03857 0.106568,-0.177614 0.04617,-0.06464 0.06251,-0.147046 0.106568,-0.213137 0.293882,-0.440822 -0.05483,0.193637 0.177614,-0.213136 0.02368,-0.04736 0.04736,-0.09473 0.07105,-0.142092 0,-0.02368 -0.0088,-0.04906 0,-0.07104 0.02755,-0.06888 0.261964,-0.588322 0.319705,-0.674933 0.02787,-0.0418 0.07737,-0.06569 0.106568,-0.106568 0.03078,-0.04309 0.03714,-0.101411 0.07105,-0.142092 0.02733,-0.0328 0.07924,-0.03825 0.106568,-0.07105 0.06034,-0.07241 0.0657,-0.184997 0.142091,-0.24866 0.04068,-0.0339 0.101886,-0.03658 0.142092,-0.07105 0.04495,-0.03853 0.07105,-0.09473 0.106568,-0.142092 0.106568,-0.09473 0.205638,-0.198631 0.319705,-0.284182 0.06355,-0.04766 0.148501,-0.0604 0.213137,-0.106568 0.07525,-0.05375 0.130419,-0.136256 0.213136,-0.177614 0.02118,-0.01059 0.05048,0.01175 0.07105,0 0.136186,-0.03241 0.177444,-0.181948 0.284182,-0.24866 0.18822,-0.117637 0.47259,-0.208303 0.674933,-0.284182 0.134987,-0.05062 0.229426,-0.150235 0.355228,-0.213137 0.01848,-0.0092 0.452914,-0.235972 0.497319,-0.248659 0.04554,-0.01301 0.09565,0.0093 0.142091,0 0.05193,-0.01038 0.09118,-0.0565 0.142091,-0.07105 0.09389,-0.02682 0.192757,-0.03676 0.284183,-0.07105 0.04958,-0.01859 0.09072,-0.0582 0.142091,-0.07105 0.130928,-0.03273 0.291146,0.01501 0.426273,0 0.143991,-0.016 0.284173,-0.05526 0.426274,-0.07105 0.176527,-0.01961 0.355679,0.01266 0.532841,0 0.140987,-0.01007 0.285665,-0.05347 0.426274,-0.07105 0.282575,-0.03532 0.547008,0.03247 0.817024,0.07105 0.217746,0.03111 0.423467,-0.01846 0.63941,0.03552 z"
         id="path5" />
      <path
         style="fill:#333333;stroke-width:49.9999;stroke-linecap:round;stroke-linejoin:round"
         d="m 22.628015,18.649463 c -0.222997,0.01227 -0.508267,-0.03924 -0.710456,0.07104 -0.03328,0.01815 -0.0549,0.05409 -0.08881,0.07105 -0.197126,0.09856 -0.108622,0.01357 -0.284182,0.08881 -0.04387,0.0188 -0.08071,0.05166 -0.12433,0.07104 -0.06332,0.02815 -0.131681,0.04375 -0.195375,0.07105 -0.06084,0.02607 -0.116653,0.06302 -0.177614,0.08881 -0.237726,0.100576 -0.63003,0.176376 -0.834786,0.319705 -0.148808,0.104166 -0.234768,0.273794 -0.372989,0.390751 -0.05328,0.04144 -0.106568,0.08289 -0.159853,0.124329 -0.02368,0.0296 -0.04287,0.06345 -0.07104,0.08881 -0.03173,0.02856 -0.07287,0.04483 -0.106568,0.07105 -0.07274,0.05657 -0.152584,0.125507 -0.213137,0.195375 -0.0715,0.0825 -0.143249,0.164795 -0.213137,0.24866 -0.04076,0.04892 -0.0658,0.110936 -0.106568,0.159852 -0.04271,0.05125 -0.09939,0.09085 -0.142091,0.142091 -0.12929,0.155148 0.01373,-0.01171 -0.08881,0.142092 -0.02103,0.03154 -0.05194,0.05606 -0.07105,0.08881 -0.04851,0.08316 -0.06411,0.181513 -0.106568,0.266421 -0.02185,0.0437 -0.04381,0.10124 -0.07105,0.142091 -0.01609,0.02414 -0.07292,0.09256 -0.08881,0.124329 -0.0084,0.01675 -0.0085,0.03703 -0.01776,0.05329 -0.02937,0.0514 -0.06201,0.103104 -0.106569,0.142091 -0.07121,0.06231 -0.09804,0.03789 -0.159852,0.106568 -0.03407,0.03786 -0.05656,0.08491 -0.08881,0.12433 -0.02121,0.02592 -0.05158,0.04379 -0.07105,0.07104 -0.01234,0.01728 -0.03035,0.112257 -0.03552,0.12433 -0.02755,0.06429 -0.08621,0.120433 -0.124329,0.177614 -0.0059,0.01184 -0.01184,0.02368 -0.01776,0.03552 0,0.01184 0.0053,0.02493 0,0.03552 -0.0075,0.01498 -0.02623,0.02159 -0.03552,0.03552 -0.0037,0.0055 -0.08425,0.296907 -0.08881,0.319706 -0.0056,0.02794 0.0069,0.06118 0,0.08881 -0.0064,0.02569 -0.02715,0.04593 -0.03552,0.07105 -0.02279,0.06838 0.0142,0.159896 0,0.230898 0.03567,0.03162 -0.0296,0.05328 -0.03552,0.07105 -0.0037,0.01123 0.0037,0.02429 0,0.03552 -0.0026,0.0079 -0.01511,0.0098 -0.01776,0.01776 -0.0037,0.01123 0.0053,0.02493 0,0.03552 -0.0026,0.0053 -0.01589,-0.0056 -0.01776,0 -0.0079,0.02371 0,0.07783 0,0.106568 0,0.04013 0.0026,-0.0079 -0.01776,0.05328 -0.0072,0.02156 0,0.06744 0,0.08881 0,0.131137 0.03097,0.306497 -0.07105,0.408512 -0.03175,0.03175 -0.359631,0.246869 -0.408512,0.266421 -0.01099,0.0044 -0.02391,-0.0023 -0.03552,0 -0.04078,0.0082 -0.12418,0.04964 -0.159852,0.07105 -0.01436,0.0086 -0.02116,0.02691 -0.03552,0.03552 -0.0398,0.02388 -0.07365,0.0013 -0.106568,0.01776 -0.02893,0.01446 -0.104905,0.06341 -0.142092,0.03552 -0.04689,-0.03517 -0.08289,-0.08289 -0.124329,-0.12433 -0.07105,-0.07105 -0.157404,-0.129537 -0.213137,-0.213137 -0.03825,-0.05738 -0.05582,-0.144624 -0.106568,-0.195375 -0.05587,-0.05587 -0.115697,-0.09362 -0.159853,-0.159853 -0.01769,-0.02653 -0.01784,-0.06228 -0.03552,-0.08881 -0.162595,-0.243893 0.06859,0.115127 -0.124329,-0.142091 -0.01589,-0.02118 -0.01781,-0.05137 -0.03552,-0.07105 -0.07037,-0.07819 -0.189037,-0.123703 -0.24866,-0.213137 -0.01469,-0.02203 -0.02084,-0.04902 -0.03552,-0.07104 -0.04559,-0.06839 -0.115308,-0.124106 -0.159852,-0.195376 -0.01403,-0.02245 -0.01898,-0.05037 -0.03552,-0.07104 -0.0083,-0.01034 -0.02818,-0.0067 -0.03552,-0.01776 -0.0066,-0.0099 0.0053,-0.02493 0,-0.03552 -0.01946,-0.03893 -0.07807,-0.07332 -0.106568,-0.106569 -0.08032,-0.09371 -0.168185,-0.172533 -0.248659,-0.266421 -0.01927,-0.02248 -0.03686,-0.04641 -0.05329,-0.07105 -0.01038,-0.01558 -0.0045,-0.04005 -0.01776,-0.05328 -0.0094,-0.0094 -0.02616,-0.0084 -0.03552,-0.01776 -0.03392,-0.03392 -0.05582,-0.09134 -0.08881,-0.12433 -0.01509,-0.01509 -0.03819,-0.02043 -0.05328,-0.03552 -0.05709,-0.05709 -0.085,-0.138288 -0.142091,-0.195376 -0.187759,-0.187758 0.05162,0.09705 -0.142091,-0.12433 -0.05328,-0.0609 -0.102556,-0.120317 -0.159853,-0.177614 -0.03993,-0.03993 -0.08047,-0.05591 -0.124329,-0.08881 -0.02679,-0.02009 -0.04233,-0.05382 -0.07105,-0.07105 -0.06274,-0.03764 -0.147463,-0.03821 -0.213137,-0.07105 -0.0191,-0.0096 -0.06222,-0.04664 -0.08881,-0.05328 -0.06907,-0.01727 -0.144781,-0.0437 -0.213137,-0.07104 -0.0289,-0.01156 -0.0543,-0.04638 -0.08881,-0.05328 -0.03483,-0.007 -0.07105,0 -0.106569,0 -0.01184,0 -0.03552,-0.01184 -0.03552,0 0,0.03188 0.0595,-0.02296 0.08881,-0.03552 0.102506,-0.04393 0.132977,-0.03552 0.24866,-0.03552 0.145077,0 0.27563,0.0046 0.408512,0.07105 0.01909,0.0095 0.03419,0.02598 0.05328,0.03552 0.01675,0.0084 0.03831,0.0065 0.05328,0.01776 0.01059,0.0079 0.0067,0.02818 0.01776,0.03552 0.0099,0.0066 0.02453,-0.0044 0.03552,0 0.02159,0.0086 0.07398,0.04881 0.08881,0.07105 0.0033,0.0049 -0.0053,0.01511 0,0.01776 0.01059,0.0053 0.02493,-0.0053 0.03552,0 0.179454,0.08973 0.01406,0.01406 0.08881,0.08881 0.01872,0.01872 0.04902,0.02084 0.07105,0.03552 0.03357,0.02238 0.05315,0.07098 0.08881,0.08881 0.0053,0.0026 0.01357,-0.0042 0.01776,0 0.0094,0.0094 0.0084,0.02616 0.01776,0.03552 0.01824,0.01824 0.08284,0.02955 0.106568,0.05328 0.0042,0.0042 0,0.01184 0,0.01776 0.0059,0.01184 0.0072,0.02758 0.01776,0.03552 0.01498,0.01123 0.03771,0.0074 0.05328,0.01776 0.07041,0.04694 0.128978,0.124496 0.195375,0.177614 0.03492,0.02793 0.09067,0.01962 0.12433,0.05328 0.02709,0.02709 0.06495,0.0927 0.106568,0.106568 0.01123,0.0037 0.02429,-0.0037 0.03552,0 0.05214,0.01738 0.05268,0.09336 0.08881,0.12433 0.0105,0.009 0.162857,0.116951 0.177614,0.12433 0.04176,0.02088 0.04476,0.09189 0.08881,0.106568 0.01123,0.0037 0.02715,-0.0084 0.03552,0 0.01324,0.01324 0.0081,0.03723 0.01776,0.05328 0.02072,0.03454 0.06646,0.05528 0.08881,0.08881 0.02515,0.03773 -0.03976,-0.0028 0.01776,0.03552 0.05007,0.03338 0.111727,0.03495 0.159852,0.07104 0.0598,0.04485 0.121124,0.07872 0.195376,0.106569 0.01109,0.0042 0.02453,-0.0044 0.03552,0 0.01982,0.0079 0.03419,0.02598 0.05328,0.03552 0.02852,0.01426 0.06113,0.0197 0.08881,0.03552 0.02908,0.01662 0.04233,0.05382 0.07105,0.07105 0.144421,0.08665 -0.01902,-0.03636 0.08881,0.03552 0.02913,0.01942 0.0064,0.03386 0.03552,0.05328 0.06288,0.04192 0.106608,0.07548 0.195375,0.05328 0.02437,-0.0061 0.03319,-0.03821 0.05328,-0.05328 0.01059,-0.0079 0.02725,-0.0074 0.03552,-0.01776 0.03652,-0.04565 0.08601,-0.158317 0.106569,-0.213136 0.0086,-0.02286 0.0068,-0.04921 0.01776,-0.07105 0.0075,-0.01498 0.02721,-0.02098 0.03552,-0.03552 0.08383,-0.146708 0.115355,-0.345155 0.248659,-0.461796 0.02598,-0.02273 0.06156,-0.03209 0.08881,-0.05328 0.08231,-0.06402 0.144754,-0.153968 0.213136,-0.230898 0.06664,-0.07497 0.146501,-0.138171 0.213137,-0.213137 0.02519,-0.02833 0.04424,-0.062 0.07105,-0.08881 0.188133,-0.188133 -0.0026,0.04072 0.159852,-0.142091 0.0638,-0.07178 0.06912,-0.100153 0.142091,-0.159853 0.03942,-0.03225 0.08647,-0.05474 0.12433,-0.08881 0.07218,-0.06496 0.114891,-0.156772 0.177614,-0.230899 0.08044,-0.09506 0.215355,-0.145419 0.284182,-0.248659 0.02203,-0.03305 0.03125,-0.07352 0.05328,-0.106569 0.05779,-0.08668 0.337467,-0.279019 0.337467,-0.372989 0,-0.03682 -0.152362,0.151113 -0.159853,0.159853 -0.07854,0.09163 -0.120298,0.191344 -0.195375,0.266421 -0.03391,0.03391 -0.164819,0.250763 -0.177614,0.301943 -0.0029,0.01149 0.0071,0.02605 0,0.03552 -0.01281,0.01708 -0.03995,0.01885 -0.05328,0.03552 -0.01992,0.0249 -0.01784,0.06228 -0.03552,0.08881 -0.02542,0.03813 -0.04348,0.08757 -0.07105,0.12433 -0.0201,0.02679 -0.05247,0.04318 -0.07105,0.07105 -0.01469,0.02203 -0.02013,0.0495 -0.03552,0.07105 -0.02433,0.03407 -0.06558,0.05397 -0.08881,0.08881 -0.0033,0.0049 0.0042,0.01358 0,0.01776 -0.0042,0.0042 -0.01283,-0.0033 -0.01776,0 -0.02787,0.01858 -0.05382,0.04233 -0.07105,0.07105 -0.0096,0.01606 -0.0045,0.04005 -0.01776,0.05328 -0.01324,0.01324 -0.03654,0.0094 -0.05328,0.01776 -0.0505,0.02525 -0.346801,0.199133 -0.372989,0.159852 -0.0099,-0.01478 0,-0.03552 0,-0.05328 0,-0.195847 0.126506,-0.322192 0.24866,-0.461796 0.02205,-0.0252 0.05198,-0.04351 0.07105,-0.07105 0.09736,-0.140632 0.05506,-0.13299 0.142092,-0.230898 0.04752,-0.05346 0.12005,-0.129644 0.177614,-0.177614 0.0164,-0.01367 0.03819,-0.02043 0.05328,-0.03552 0.06663,-0.06663 0.01124,-0.03274 0.05328,-0.08881 0.06539,-0.08718 0.158302,-0.166989 0.230898,-0.248659 0.06446,-0.07251 0.132277,-0.139522 0.195375,-0.213137 0.03269,-0.03814 0.0787,-0.06477 0.106569,-0.106568 0.01038,-0.01558 0.0078,-0.03741 0.01776,-0.05328 0.03494,-0.05591 0.103236,-0.137174 0.159853,-0.177614 0.06199,-0.04428 0.155195,-0.07605 0.213136,-0.12433 0.0164,-0.01367 0.02043,-0.03819 0.03552,-0.05328 0.05892,-0.05892 0.148334,-0.09169 0.213137,-0.142091 0.06213,-0.04833 0.09055,-0.100952 0.142091,-0.159853 0.0386,-0.04411 0.0793,-0.08681 0.12433,-0.12433 0.01017,-0.0085 0.02616,-0.0084 0.03552,-0.01776 0.01509,-0.01509 0.02163,-0.03708 0.03552,-0.05328 0.123161,-0.143687 0.313417,-0.295814 0.479558,-0.390751 0.05414,-0.03094 0.136145,-0.02706 0.195375,-0.03552 0.072,-0.01029 0.140979,-0.04426 0.213137,-0.05328 0.131449,-0.01643 0.258847,-0.02855 0.390751,-0.05328 0.121048,-0.0227 0.256386,-0.04508 0.372989,-0.08881 0.02479,-0.0093 0.04568,-0.02792 0.07105,-0.03552 0.0634,-0.01902 0.129511,-0.02894 0.195376,-0.03552 0.06697,-0.0067 0.146214,0.01339 0.213136,0 0.207546,-0.04151 0.427162,-0.05314 0.63941,-0.01776 z"
         id="path6" />
      <path
         style="fill:#333333;stroke-width:49.9999;stroke-linecap:round;stroke-linejoin:round"
         d="m 19.046029,20.182637 c -0.0084,0.01465 -0.01499,0.03046 -0.02512,0.04396 -0.0315,0.042 -0.03204,0.02558 -0.07536,0.05652 -0.02661,0.019 -0.04944,0.04286 -0.07536,0.0628 -0.05145,0.03958 -0.106315,0.07778 -0.15071,0.125592 -0.04052,0.04364 -0.08792,0.09734 -0.125592,0.144431 -0.0094,0.01179 -0.01569,0.02589 -0.02512,0.03768 -0.0074,0.0092 -0.01855,0.01527 -0.02512,0.02512 -0.01607,0.02411 -0.02123,0.05697 -0.03768,0.08163 -0.0074,0.01115 -0.0164,0.02122 -0.02512,0.0314 -0.0039,0.0045 -0.01036,0.0071 -0.01256,0.01256 -0.0023,0.0058 0.0012,0.01268 0,0.01884 -0.0015,0.0074 -0.01149,0.01137 -0.01256,0.01884 -0.0096,0.06746 0.007,0.135486 0.08792,0.119312 0.01655,-0.0033 0.02886,-0.01757 0.04396,-0.02512 0.02312,-0.01156 0.02567,-0.0025 0.05024,-0.01884 0.0049,-0.0033 0.0093,-0.0076 0.01256,-0.01256 0.0012,-0.0017 -0.0019,-0.0053 0,-0.0063 0.0077,-0.0039 0.01762,-0.002 0.02512,-0.0063 0.03719,-0.02125 0.05865,-0.0712 0.08791,-0.100474 0.0072,-0.0072 0.0242,-0.01164 0.0314,-0.01884 0.0086,-0.0086 0.01021,-0.02277 0.01884,-0.0314 0.0066,-0.0066 0.01781,-0.0067 0.02512,-0.01256 0.01277,-0.01021 0.02612,-0.01984 0.03768,-0.0314 0.03155,-0.03155 -9.79e-4,-0.0066 0.01884,-0.0314 0.02032,-0.0254 0.02397,-0.01769 0.05024,-0.04396 0.0053,-0.0053 0.0072,-0.0135 0.01256,-0.01884 0.06252,-0.06252 -0.03927,0.06377 0.03768,-0.04396 0.0034,-0.0048 0.0076,-0.0093 0.01256,-0.01256 0.0017,-0.0012 0.0053,0.0019 0.0063,0 0.0039,-0.0077 0.002,-0.01762 0.0063,-0.02512 0.0041,-0.0072 0.03567,-0.04402 0.04396,-0.05024 0.0034,-0.0026 0.01671,-0.0062 0.01884,-0.01256 0.0013,-0.004 -8.2e-4,-0.0085 0,-0.01256 0.008,-0.03979 0.02564,-0.07901 0.0314,-0.119312 0.0014,-0.01 0.0044,-0.135649 0,-0.144431 -0.0034,-0.0067 -0.0092,-0.01209 -0.01256,-0.01884 -9.26e-4,-0.0019 0.0015,-0.0048 0,-0.0063 -0.0031,-0.0031 -0.02648,0 -0.0314,0"
         id="path7" />
      <path
         style="fill:#333333;stroke-width:49.9999;stroke-linecap:round;stroke-linejoin:round"
         d="m 18.791554,23.196379 c 0.165773,0 0.331546,0 0.497319,0 0.13617,0 0.272341,0 0.408512,0 0.0296,0 0.05991,-0.0064 0.08881,0 0.02585,0.0057 0.04559,0.02825 0.07105,0.03552 0.008,0.0023 0.07363,-0.0015 0.08881,0 0.166689,0.01667 0.330014,0.01776 0.497319,0.01776 0.05517,0 0.171691,-0.0148 0.230898,0 0.0081,0.002 0.0098,0.01511 0.01776,0.01776 0.02681,0.0089 0.07726,0 0.106568,0 0.08752,0 0.161442,0.0081 0.24866,0.01776 0.04584,0.0051 0.09689,-0.009 0.142091,0 0.144973,0.029 -0.07547,0.01776 0.159853,0.01776 0.03552,0 0.07287,-0.01123 0.106568,0 0.0079,0.0026 0.01027,0.01402 0.01776,0.01776 0.0053,0.0026 0.02368,0 0.01776,0 -0.07461,0 -0.08737,-0.04234 -0.142091,-0.05328 -0.08034,-0.01607 -0.166933,-0.02604 -0.24866,-0.05328 -0.01599,-0.0053 -0.0373,0.0053 -0.05328,0 -0.0079,-0.0026 -0.0098,-0.01511 -0.01776,-0.01776 -0.01966,-0.0066 -0.121613,-0.0326 -0.142091,-0.03552 -0.04725,-0.0068 -0.09473,-0.01184 -0.142091,-0.01776 -0.06256,-0.0078 -0.152604,0.02018 -0.213137,0 -0.07059,-0.02353 -0.153697,-0.04556 -0.230898,-0.05328 -0.02946,-0.0029 -0.05961,0.0049 -0.08881,0 -0.0083,-0.0014 -0.0096,-0.01573 -0.01776,-0.01776 -0.02156,-0.01723 -0.04807,0.0057 -0.07105,0 -0.06137,-0.01534 -0.119128,-0.01603 -0.177614,-0.03552 -0.0564,-0.0188 -0.136709,0.0098 -0.195375,0 -0.103191,-0.0172 -0.196095,-0.06046 -0.301943,-0.07105 -0.105892,-0.01059 -0.274676,-0.02156 -0.37299,0.01776 -0.105996,0.0424 -0.202872,0.12433 -0.319705,0.12433"
         id="path8" />
      <path
         style="fill:#333333;stroke-width:49.9999;stroke-linecap:round;stroke-linejoin:round"
         d="m 19.590817,23.054288 c 0.201751,-0.07562 0.422679,-0.08881 0.63941,-0.08881 0.03134,0 0.09229,-0.01068 0.124329,0 0.02864,0.0095 0.127444,0.0282 0.142091,0.03552 0.01498,0.0075 0.02055,0.02803 0.03552,0.03552 0.04337,0.02169 0.09754,0.02438 0.142091,0.03552 0.142864,0.03572 -0.03699,-5.82e-4 0.05328,0.03552 0.04708,0.01883 0.09547,0.01998 0.142091,0.03552 0.0056,0.0019 0.01184,0 0.01776,0 0.0296,0.0059 0.06078,0.0065 0.08881,0.01776 0.0055,0.0022 -0.0053,0.01511 0,0.01776 6.35e-4,3.18e-4 0.143743,0.01694 0.106568,0.03552 -0.04104,0.02052 -0.222931,0 -0.284182,0 -0.12433,0 -0.24866,0 -0.37299,0 -0.05003,0 -0.111543,0.0097 -0.159852,0 -0.06759,-0.01352 -0.130296,-0.03701 -0.195376,-0.05328 -0.06129,-0.01533 -0.134081,0.01532 -0.195375,0 -0.03795,-0.0095 -0.04963,-0.01776 -0.08881,-0.01776"
         id="path9" />
    </g>
  </g>
</svg>
